HIERARCHY
ROOT joint_0
{
	OFFSET 0.000000 0.000000 0.000000
	CHANNELS 6 Xposition Yposition Zposition Zrotation Yrotation Xrotation 
	JOINT joint_1
	{
		OFFSET 6.579712 -2.778931 100.531982
		CHANNELS 3 Zrotation Yrotation Xrotation
		JOINT joint_2
		{
			OFFSET -3.313232 -1.302856 91.974976
			CHANNELS 3 Zrotation Yrotation Xrotation
			JOINT joint_3
			{
				OFFSET -3.421509 -1.641846 91.864014
				CHANNELS 3 Zrotation Yrotation Xrotation
				JOINT joint_4
				{
					OFFSET 7.697388 -4.642578 123.278931
					CHANNELS 3 Zrotation Yrotation Xrotation
					JOINT joint_5
					{
						OFFSET 24.842529 -5.941528 79.695068
						CHANNELS 3 Zrotation Yrotation Xrotation
						End Site
						{
							OFFSET 0.000000 0.000000 0.000000
						}
					}
				}
				JOINT joint_6
				{
					OFFSET -0.159668 -29.112976 68.364014
					CHANNELS 3 Zrotation Yrotation Xrotation
					JOINT joint_7
					{
						OFFSET -18.356079 -115.987061 -20.069092
						CHANNELS 3 Zrotation Yrotation Xrotation
						JOINT joint_8
						{
							OFFSET 31.719482 -11.733276 -267.170898
							CHANNELS 3 Zrotation Yrotation Xrotation
							JOINT joint_9
							{
								OFFSET 29.329956 -5.879517 -234.654053
								CHANNELS 3 Zrotation Yrotation Xrotation
								End Site
								{
									OFFSET 0.000000 0.000000 0.000000
								}
							}
						}
					}
				}
				JOINT joint_10
				{
					OFFSET 8.802979 23.897949 69.798950
					CHANNELS 3 Zrotation Yrotation Xrotation
					JOINT joint_11
					{
						OFFSET 21.159058 115.524292 -19.981934
						CHANNELS 3 Zrotation Yrotation Xrotation
						JOINT joint_12
						{
							OFFSET 18.809204 5.403442 -268.593018
							CHANNELS 3 Zrotation Yrotation Xrotation
							JOINT joint_13
							{
								OFFSET 20.807861 0.421265 -235.639038
								CHANNELS 3 Zrotation Yrotation Xrotation
								End Site
								{
									OFFSET 0.000000 0.000000 0.000000
								}
							}
						}
					}
				}
			}
		}
	}
	JOINT joint_14
	{
		OFFSET -9.713379 -79.513916 -99.348022
		CHANNELS 3 Zrotation Yrotation Xrotation
		JOINT joint_15
		{
			OFFSET -40.607788 -6.518372 -502.938019
			CHANNELS 3 Zrotation Yrotation Xrotation
			JOINT joint_16
			{
				OFFSET -19.807617 -7.437378 -399.590012
				CHANNELS 3 Zrotation Yrotation Xrotation
				JOINT joint_17
				{
					OFFSET 171.701660 -44.751282 -77.782000
					CHANNELS 3 Zrotation Yrotation Xrotation
					End Site
					{
						OFFSET 0.000000 0.000000 0.000000
					}
				}
			}
		}
	}
	JOINT joint_18
	{
		OFFSET 17.854858 79.618652 -98.128052
		CHANNELS 3 Zrotation Yrotation Xrotation
		JOINT joint_19
		{
			OFFSET -24.848877 16.861816 -503.722992
			CHANNELS 3 Zrotation Yrotation Xrotation
			JOINT joint_20
			{
				OFFSET -30.162476 14.470093 -398.750008
				CHANNELS 3 Zrotation Yrotation Xrotation
				JOINT joint_21
				{
					OFFSET 176.096680 -10.987549 -80.021000
					CHANNELS 3 Zrotation Yrotation Xrotation
					End Site
					{
						OFFSET 0.000000 0.000000 0.000000
					}
				}
			}
		}
	}
}
MOTION
Frames: 9
Frame Time: 0.016667
-1105.696045 954.669128 1092.415039 2.883160 -2.495966 0.122171 -1.080121 0.536334 -0.725393 -1.075985 -0.047602 0.120194 -1.096701 0.077460 -0.104743 0.155830 2.300303 0.010426 0.000000 0.000000 0.000000 -2.494244 2.057067 -3.869152 1.984131 -1.326999 5.378497 2.625859 -61.919888 -9.358772 0.000000 0.000000 0.000000 1.247761 -1.970220 3.335686 1.837893 1.005745 -3.350737 -1.231097 -76.506114 -17.244181 0.000000 0.000000 0.000000 0.769721 -3.943629 -3.305675 0.099860 15.161341 2.011774 0.971540 -8.491605 -1.788304 0.000000 0.000000 0.000000 3.151460 -3.401857 -1.745298 3.458056 14.344225 4.648429 3.620998 -6.947207 1.165332 0.000000 0.000000 0.000000 
-1104.386108 955.855652 1092.061035 3.069711 -2.552242 0.216135 -1.062649 0.545725 -0.698172 -1.060178 -0.049986 0.119965 -1.082770 0.086162 -0.099217 0.164661 2.383464 0.012905 0.000000 0.000000 0.000000 -2.433197 1.339687 -4.113550 1.753401 -2.400194 5.351234 2.786989 -63.872703 -9.235186 0.000000 0.000000 0.000000 1.565180 -3.471830 3.280520 2.218519 0.385652 -3.506063 -1.312570 -77.586585 -18.494581 0.000000 0.000000 0.000000 0.715681 -4.022771 -3.458418 0.031204 15.671724 1.961479 0.933242 -8.549955 -1.821732 0.000000 0.000000 0.000000 3.122065 -3.445774 -1.944604 3.431422 14.728621 4.716558 3.624791 -7.026931 1.159580 0.000000 0.000000 0.000000 
-1102.611572 957.282532 1091.827026 3.238915 -2.588358 0.300619 -1.025558 0.539438 -0.636093 -1.024551 -0.046501 0.119208 -1.048914 0.093735 -0.095296 0.171759 2.457009 0.022916 0.000000 0.000000 0.000000 -2.383837 0.784096 -4.320886 1.475058 -3.435952 5.282122 2.949036 -65.694378 -9.021973 0.000000 0.000000 0.000000 2.467305 -4.933614 3.568744 2.207283 0.097790 -4.394318 -1.646456 -78.453836 -19.657167 0.000000 0.000000 0.000000 0.672019 -4.090684 -3.616004 -0.027368 16.161234 1.921644 0.905324 -8.595000 -1.847089 0.000000 0.000000 0.000000 3.102552 -3.447453 -2.155536 3.409203 15.035301 4.799196 3.632425 -7.112136 1.155455 0.000000 0.000000 0.000000 
-1100.508667 958.892883 1091.667969 3.398246 -2.605331 0.381062 -0.983532 0.527023 -0.544381 -0.984266 -0.043542 0.106549 -1.008981 0.102630 -0.085451 0.175637 2.513947 0.042089 0.000000 0.000000 0.000000 -2.321271 0.346523 -4.517104 1.161250 -4.446144 5.194000 3.111217 -67.415492 -8.734116 0.000000 0.000000 0.000000 3.665818 -6.343833 4.042010 1.918533 0.068709 -5.710389 -2.086506 -79.172564 -20.731353 0.000000 0.000000 0.000000 0.636157 -4.151730 -3.781709 -0.078813 16.627410 1.891384 0.884677 -8.624733 -1.865243 0.000000 0.000000 0.000000 3.089380 -3.424809 -2.374048 3.390226 15.288257 4.883242 3.642134 -7.195386 1.152570 0.000000 0.000000 0.000000 
-1098.326538 960.578979 1091.489990 3.531219 -2.584416 0.464901 -0.970797 0.525598 -0.437587 -0.973826 -0.044518 0.082194 -0.997375 0.111823 -0.067939 0.184058 2.532094 0.038740 0.000000 0.000000 0.000000 -2.174922 -0.067728 -4.689384 0.863418 -5.379594 5.091778 3.274489 -68.999807 -8.473281 0.000000 0.000000 0.000000 4.657853 -7.544968 4.279912 1.614351 0.159910 -6.782879 -2.402571 -79.974043 -21.595856 0.000000 0.000000 0.000000 0.610158 -4.256594 -3.959245 -0.121941 17.106482 1.869403 0.873971 -8.671927 -1.883618 0.000000 0.000000 0.000000 3.084858 -3.427660 -2.597306 3.381242 15.529515 4.958874 3.659739 -7.303747 1.151600 0.000000 0.000000 0.000000 
-1096.188965 962.322205 1091.212036 3.646725 -2.531642 0.552739 -1.007791 0.541621 -0.305941 -1.013905 -0.055390 0.049923 -1.035204 0.117927 -0.046384 0.206423 2.521459 -0.017823 0.000000 0.000000 0.000000 -1.864324 -0.491308 -4.874912 0.661069 -6.204889 5.078465 3.442456 -70.464061 -8.429135 0.000000 0.000000 0.000000 5.364375 -8.450310 4.099493 1.377565 0.304191 -7.357237 -2.560577 -80.944595 -22.261269 0.000000 0.000000 0.000000 0.590606 -4.408344 -4.148313 -0.159954 17.611192 1.853482 0.871382 -8.756039 -1.908141 0.000000 0.000000 0.000000 3.086426 -3.462403 -2.822678 3.381132 15.778191 5.021387 3.683811 -7.472643 1.149568 0.000000 0.000000 0.000000 
-1093.972168 964.141113 1090.913940 3.735743 -2.441235 0.644484 -1.075953 0.570135 -0.158309 -1.085470 -0.070233 0.012100 -1.103674 0.122455 -0.022218 0.237234 2.471828 -0.113164 0.000000 0.000000 0.000000 -1.473300 -0.916495 -5.084756 0.531493 -6.898677 5.096640 3.603661 -71.859088 -8.448554 0.000000 0.000000 0.000000 5.907515 -9.077405 3.741139 1.144667 0.511128 -7.702631 -2.651938 -82.041662 -22.741913 0.000000 0.000000 0.000000 0.581139 -4.603659 -4.349579 -0.189120 18.128742 1.845133 0.879082 -8.857103 -1.932640 0.000000 0.000000 0.000000 3.096463 -3.522189 -3.053254 3.390940 16.015002 5.075164 3.715438 -7.666263 1.149302 0.000000 0.000000 0.000000 
-1091.558960 965.976379 1090.733032 3.760052 -2.276779 0.745774 -1.152276 0.617447 -0.040030 -1.164927 -0.081584 -0.019770 -1.180115 0.131297 -0.000854 0.265332 2.330502 -0.221450 0.000000 0.000000 0.000000 -1.177588 -1.381108 -5.284459 0.363934 -7.415159 4.947479 3.714262 -73.182569 -8.105339 0.000000 0.000000 0.000000 6.103322 -9.419444 3.433028 1.003199 0.741536 -7.941022 -2.668181 -83.273292 -22.933271 0.000000 0.000000 0.000000 0.592963 -4.883664 -4.566334 -0.198744 18.657023 1.846071 0.904621 -8.948216 -1.946752 0.000000 0.000000 0.000000 3.124446 -3.639489 -3.294729 3.420746 16.228015 5.125386 3.764892 -7.807677 1.160274 0.000000 0.000000 0.000000 
-1089.001587 967.848328 1090.691040 3.741142 -2.041979 0.865067 -1.245166 0.710171 0.027891 -1.261822 -0.086289 -0.048471 -1.273761 0.143172 0.024351 0.290742 2.055495 -0.350404 0.000000 0.000000 0.000000 -1.082507 -1.897878 -5.482739 0.124285 -7.660114 4.566399 3.730708 -74.506098 -7.141101 0.000000 0.000000 0.000000 5.696647 -9.288188 3.267016 1.052708 0.984184 -8.066154 -2.586877 -84.790602 -22.674658 0.000000 0.000000 0.000000 0.618268 -5.226335 -4.797786 -0.194720 19.156697 1.832387 0.938638 -9.026211 -1.953649 0.000000 0.000000 0.000000 3.164017 -3.828290 -3.561060 3.464270 16.437949 5.176101 3.828583 -7.862123 1.183019 0.000000 0.000000 0.000000 
